# xmcd
#
# Track frame offsets:
#	150
#	16710
#	31365
#	47655
#	63635
#	77058
#	93813
#	111113
#	126900
#	142563
#	155575
#	171438
#
# Disc length: 2481 seconds
#
# Revision: 2
# Processed by: cddbd v1.5.2PL0 Copyright (c) Steve Scherf et al.
# Submitted via: EasyCDDAExtractor 15.3.0.1
#
DISCID=9109af0c
DTITLE=Daniela Romo - Mujer De Todos, Mujer De Nadie
DYEAR=1986
DGENRE=Latin
TTITLE0=De Mi Enamorate
TTITLE1=Veneno Para Dos
TTITLE2=No, No Le Creas
TTITLE3=Coco Loco
TTITLE4=Me Alimento De Ti (A Dueto Con Mijares)
TTITLE5=Ayer Pense
TTITLE6=Confesiones
TTITLE7=Adelante Corazon
TTITLE8=La Batalla Del Amor
TTITLE9=Mujer De Todos, Mujer De Nadie
TTITLE10=Bastara
TTITLE11=El Mundo Acabara
EXTD=ID3G:  86
EXTT0=
EXTT1=
EXTT2=
EXTT3=
EXTT4=
EXTT5=
EXTT6=
EXTT7=
EXTT8=
EXTT9=
EXTT10=
EXTT11=
PLAYORDER=
